<svg width="16" height="16" viewBox="0 0 16 16" fill="none" xmlns="http://www.w3.org/2000/svg"><path d="M7.333 1.401A3.334 3.334 0 0 0 3.57 3.432a3 3 0 0 0-1.732 4.57 3 3 0 0 0 1.068 4.306 3.67 3.67 0 0 0 4.427 2.222v-3.196c0-.736-.597-1.333-1.334-1.333a.667.667 0 1 1 0-1.333c.486 0 .942.13 1.334.357zm1.334 13.13a3.67 3.67 0 0 0 4.427-2.223 3 3 0 0 0 1.068-4.306 3 3 0 0 0-1.731-4.569 3.334 3.334 0 0 0-3.764-2.03V4.67a1.333 1.333 0 0 0 1.334 1.331.667.667 0 1 1 0 1.333c-.486 0-.942-.13-1.334-.356z" fill="#177899"/></svg>