<svg width="16" height="17" viewBox="0 0 16 17" fill="none" xmlns="http://www.w3.org/2000/svg"><path fill-rule="evenodd" clip-rule="evenodd" d="M11.862 1.64a.666.666 0 0 1 .943 0l1.666 1.666c.26.26.26.682 0 .943L4.138 14.582a.667.667 0 0 1-.943 0L1.53 12.915a.667.667 0 0 1 0-.942zm-1.086 2.97.724.724 1.557-1.557-.724-.724z" fill="#177899"/><path d="M6.617 1.469a.17.17 0 0 0 .074-.075l.493-.985a.167.167 0 0 1 .298 0l.493.985a.17.17 0 0 0 .074.075l.986.492a.167.167 0 0 1 0 .298l-.986.493a.17.17 0 0 0-.074.075l-.493.985a.167.167 0 0 1-.298 0l-.493-.985a.17.17 0 0 0-.074-.075L5.63 2.26a.167.167 0 0 1 0-.298zm6 7.333a.17.17 0 0 0 .074-.075l.493-.985a.167.167 0 0 1 .298 0l.493.985a.17.17 0 0 0 .074.075l.986.493a.167.167 0 0 1 0 .298l-.986.492a.17.17 0 0 0-.074.075l-.493.986a.167.167 0 0 1-.298 0l-.493-.986a.17.17 0 0 0-.074-.075l-.986-.492a.167.167 0 0 1 0-.298zm-9.334-4a.17.17 0 0 0 .075-.075l.493-.985a.167.167 0 0 1 .298 0l.493.985a.17.17 0 0 0 .074.075l.986.493a.167.167 0 0 1 0 .298l-.986.492a.17.17 0 0 0-.074.075l-.493.986a.167.167 0 0 1-.298 0l-.493-.986a.17.17 0 0 0-.075-.075l-.985-.492a.167.167 0 0 1 0-.298z" fill="#177899"/></svg>