<svg width="98" height="24" viewBox="0 0 98 24" fill="none" xmlns="http://www.w3.org/2000/svg">
<path fill-rule="evenodd" clip-rule="evenodd" d="M16.3852 3.75729L9.93738 -0.00390625V23.9961L16.3852 20.2349V3.75729ZM5.46338 1.21666L4.51636 0.664235V1.7606V22.1785V23.2749L5.46338 22.7225L8.20611 21.1225L7.57152 20.0347L5.7758 21.0821V2.85697L7.57152 3.90446L8.20611 2.81657L5.46338 1.21666ZM0.14024 2.49571L1.08726 3.04813L3.35817 4.37281L2.72357 5.4607L1.39969 4.68844V19.4012L2.72357 18.6289L3.35817 19.7168L1.08726 21.0415L0.14024 21.5939V20.4975V3.59208V2.49571ZM37.4366 18.5044C38.5921 17.5747 39.3319 16.2505 39.656 14.5319H37.0772C36.8377 15.5884 36.3656 16.3843 35.661 16.9196C34.9706 17.4409 34.1039 17.7015 33.0612 17.7015C32.4411 17.7015 31.8704 17.5747 31.349 17.3211C30.8277 17.0676 30.3697 16.6943 29.9751 16.2012C29.5806 15.7082 29.2705 15.1024 29.0451 14.384C28.8337 13.6656 28.728 12.8415 28.728 11.9118C28.728 10.982 28.8408 10.165 29.0662 9.46063C29.2917 8.75629 29.6017 8.16464 29.9963 7.68569C30.3908 7.20673 30.8488 6.84751 31.3702 6.60804C31.9057 6.35447 32.4764 6.22769 33.0823 6.22769C34.0828 6.22769 34.9283 6.49534 35.6188 7.03064C36.3233 7.56595 36.7954 8.35481 37.035 9.39724H39.6137C39.3037 7.67864 38.578 6.35447 37.4366 5.42474C36.2952 4.495 34.8719 4.03013 33.1668 4.03013C32.0536 4.03013 31.0531 4.21326 30.1654 4.57952C29.2776 4.94578 28.5167 5.47404 27.8825 6.1643C27.2625 6.85456 26.7834 7.68569 26.4452 8.65768C26.1211 9.62968 25.959 10.7144 25.959 11.9118C25.959 13.1091 26.1141 14.2009 26.4241 15.187C26.7482 16.173 27.2132 17.0183 27.8191 17.7226C28.4251 18.4129 29.1649 18.9482 30.0385 19.3285C30.9122 19.7089 31.9127 19.899 33.04 19.899C34.8156 19.899 36.2811 19.4342 37.4366 18.5044ZM46.7957 17.6154C46.4434 17.7704 46.0559 17.8479 45.6332 17.8479C45.2104 17.8479 44.8229 17.7704 44.4706 17.6154C44.1183 17.4464 43.8083 17.2069 43.5406 16.897C43.2728 16.573 43.0615 16.1715 42.9065 15.6926C42.7655 15.1995 42.6951 14.622 42.6951 13.9599C42.6951 13.3119 42.7655 12.7414 42.9065 12.2483C43.0615 11.7553 43.2728 11.3468 43.5406 11.0228C43.8083 10.6988 44.1183 10.4593 44.4706 10.3043C44.8229 10.1353 45.2104 10.0508 45.6332 10.0508C46.0559 10.0508 46.4434 10.1353 46.7957 10.3043C47.148 10.4593 47.458 10.6988 47.7258 11.0228C47.9935 11.3468 48.1978 11.7553 48.3387 12.2483C48.4937 12.7414 48.5712 13.3119 48.5712 13.9599C48.5712 14.622 48.4937 15.1995 48.3387 15.6926C48.1978 16.1715 47.9935 16.573 47.7258 16.897C47.458 17.2069 47.148 17.4464 46.7957 17.6154ZM47.7046 8.36033C47.0423 8.12086 46.3518 8.00112 45.6332 8.00112C44.9145 8.00112 44.224 8.12086 43.5617 8.36033C42.8994 8.59981 42.3076 8.96607 41.7862 9.45911C41.2789 9.93806 40.8702 10.5508 40.5602 11.2975C40.2502 12.0441 40.0952 12.9315 40.0952 13.9599C40.0952 14.9882 40.2502 15.8757 40.5602 16.6223C40.8702 17.3689 41.2789 17.9887 41.7862 18.4818C42.3076 18.9607 42.8994 19.3199 43.5617 19.5594C44.224 19.7848 44.9145 19.8975 45.6332 19.8975C46.3518 19.8975 47.0423 19.7848 47.7046 19.5594C48.3669 19.3199 48.9517 18.9607 49.459 18.4818C49.9804 17.9887 50.3961 17.3689 50.7061 16.6223C51.0161 15.8757 51.1711 14.9882 51.1711 13.9599C51.1711 12.9315 51.0161 12.0441 50.7061 11.2975C50.3961 10.5508 49.9804 9.93806 49.459 9.45911C48.9517 8.96607 48.3669 8.59981 47.7046 8.36033ZM54.567 10.1174C54.8911 9.52571 55.342 9.07493 55.9198 8.76502C56.5116 8.44102 57.2092 8.27902 58.0124 8.27902C58.7029 8.27902 59.2877 8.38467 59.7668 8.59597C60.26 8.80728 60.6616 9.11014 60.9716 9.50458C61.2816 9.89901 61.5071 10.3709 61.648 10.9203C61.803 11.4697 61.8805 12.0825 61.8805 12.7587V19.9007H59.3652V13.3714C59.3652 12.9911 59.344 12.6178 59.3018 12.2515C59.2595 11.8853 59.1608 11.5613 59.0058 11.2795C58.8649 10.9837 58.6465 10.7513 58.3506 10.5822C58.0687 10.4132 57.6883 10.3287 57.2092 10.3287C56.7301 10.3287 56.3214 10.4202 55.9832 10.6034C55.645 10.7724 55.3702 11.0119 55.1589 11.3218C54.9475 11.6317 54.7925 12.005 54.6938 12.4417C54.6093 12.8784 54.567 13.3503 54.567 13.8574V19.9007H52.0517V8.53258H54.567V10.1174ZM66.5236 5.53013H64.0083V8.53064H62.3173V10.3479H64.0083V16.9194C64.0083 17.497 64.0435 17.983 64.114 18.3774C64.1985 18.7577 64.3465 19.0606 64.5579 19.286C64.7692 19.5114 65.0652 19.6734 65.4456 19.772C65.8261 19.8565 66.3193 19.8988 66.9252 19.8988H68.7853V17.9759H67.8764C67.3409 17.9759 66.9816 17.8843 66.7984 17.7012C66.6152 17.504 66.5236 17.1166 66.5236 16.539V10.3479H68.8064V8.53064H66.5236V5.53013ZM74.9374 19.8975C74.0073 19.8975 73.183 19.7355 72.4643 19.4115C71.7597 19.0875 71.1679 18.6508 70.6888 18.1014C70.2238 17.552 69.8644 16.9111 69.6108 16.1786C69.3712 15.446 69.2515 14.6713 69.2515 13.8542C69.2515 12.9949 69.3853 12.2131 69.6531 11.5088C69.9208 10.7903 70.2942 10.1705 70.7733 9.64928C71.2525 9.12807 71.8302 8.72659 72.5066 8.44485C73.183 8.14903 73.9369 8.00112 74.7683 8.00112C75.656 8.00112 76.4452 8.17016 77.1356 8.50824C77.8261 8.84633 78.4039 9.3112 78.8689 9.90285C79.3339 10.4945 79.6792 11.1988 79.9046 12.0159C80.1301 12.8188 80.2146 13.6993 80.1583 14.6572H71.8091C71.8232 15.108 71.9077 15.5306 72.0627 15.925C72.2318 16.3053 72.4502 16.6364 72.718 16.9181C72.9857 17.1999 73.2957 17.4182 73.648 17.5732C74.0144 17.7281 74.4089 17.8056 74.8317 17.8056C76.1986 17.8056 77.1075 17.2773 77.5584 16.2208H80.0315C79.9046 16.6716 79.7073 17.1224 79.4396 17.5732C79.1719 18.0099 78.8266 18.4043 78.4039 18.7565C77.9952 19.0946 77.502 19.3692 76.9243 19.5805C76.3465 19.7919 75.6842 19.8975 74.9374 19.8975ZM74.7683 9.96624C74.416 9.96624 74.0637 10.0226 73.7114 10.1353C73.3732 10.248 73.0632 10.4241 72.7814 10.6635C72.5136 10.8889 72.2882 11.1848 72.105 11.551C71.9218 11.9032 71.8232 12.3258 71.8091 12.8188H77.6007C77.5866 12.3821 77.502 11.9877 77.347 11.6355C77.192 11.2693 76.9877 10.9664 76.734 10.7269C76.4804 10.4875 76.1845 10.3043 75.8463 10.1775C75.5081 10.0367 75.1487 9.96624 74.7683 9.96624ZM91.3127 19.8949L87.1698 13.9784L91.059 8.52679H88.3112L85.7958 12.0344L83.3651 8.52679H80.4058L84.3162 14.1263L80.1733 19.8949H82.9423L85.669 16.0703L88.3535 19.8949H91.3127ZM93.0105 5.53013H95.5259V8.53064H97.8087V10.3479H95.5259V16.539C95.5259 17.1166 95.6174 17.504 95.8006 17.7012C95.9838 17.8843 96.3432 17.9759 96.8786 17.9759H97.7875V19.8988H95.9275C95.3215 19.8988 94.8283 19.8565 94.4478 19.772C94.0674 19.6734 93.7715 19.5114 93.5601 19.286C93.3487 19.0606 93.2008 18.7577 93.1162 18.3774C93.0457 17.983 93.0105 17.497 93.0105 16.9194V10.3479H91.3195V8.53064H93.0105V5.53013Z" fill="white"/>
</svg>
